
    <svg width="44" height="25" viewBox="0 0 44 25" fill="none" xmlns="http://www.w3.org/2000/svg">
    <path d="M10.2379 0L0 25H17.307L14.8694 19.75H8.77536L13.4068 7.5L19.9883 25H27.5449L16.8194 0H10.2379Z" fill="white"/>
    <path fill-rule="evenodd" clip-rule="evenodd" d="M22.9134 0.25V9.75L29.4949 24.5V18.5H37.7828C45.8269 16.25 46.3144 2.25 37.7828 0.5C32.3226 0.3 25.5948 0.25 22.9134 0.25ZM29.7387 12.75V6H35.3452C39.0016 7.75 37.0515 12.75 35.3452 12.75H29.7387Z" fill="white"/>
    <path d="M10.2379 0L0 25H17.307L14.8694 19.75H8.77536L13.4068 7.5L19.9883 25H27.5449L16.8194 0H10.2379Z" stroke="white"/>
    <path fill-rule="evenodd" clip-rule="evenodd" d="M22.9134 0.25V9.75L29.4949 24.5V18.5H37.7828C45.8269 16.25 46.3144 2.25 37.7828 0.5C32.3226 0.3 25.5948 0.25 22.9134 0.25ZM29.7387 12.75V6H35.3452C39.0016 7.75 37.0515 12.75 35.3452 12.75H29.7387Z" stroke="white"/>
    </svg>
